<svg width="23" height="24" viewBox="0 0 23 24" fill="none" xmlns="http://www.w3.org/2000/svg">
<g clip-path="url(#clip0_11_275)">
<path fill-rule="evenodd" clip-rule="evenodd" d="M2.25 12C2.25413 8.27379 5.27379 5.25413 9 5.25H18V3.75C17.9998 3.44647 18.1825 3.17272 18.4629 3.05653C18.7433 2.94034 19.0661 3.00463 19.2806 3.21937L21.5306 5.46938C21.6715 5.61005 21.7506 5.80094 21.7506 6C21.7506 6.19906 21.6715 6.38995 21.5306 6.53062L19.2806 8.78063C19.0661 8.99537 18.7433 9.05966 18.4629 8.94347C18.1825 8.82728 17.9998 8.55353 18 8.25V6.75H9C6.10179 6.7531 3.7531 9.10179 3.75 12C3.75 12.4142 3.41421 12.75 3 12.75C2.58579 12.75 2.25 12.4142 2.25 12ZM21 11.25C20.5858 11.25 20.25 11.5858 20.25 12C20.2469 14.8982 17.8982 17.2469 15 17.25H6V15.75C6.00024 15.4465 5.8175 15.1727 5.53709 15.0565C5.25668 14.9403 4.93388 15.0046 4.71938 15.2194L2.46937 17.4694C2.32854 17.6101 2.24941 17.8009 2.24941 18C2.24941 18.1991 2.32854 18.3899 2.46937 18.5306L4.71938 20.7806C4.93388 20.9954 5.25668 21.0597 5.53709 20.9435C5.8175 20.8273 6.00024 20.5535 6 20.25V18.75H15C18.7262 18.7459 21.7459 15.7262 21.75 12C21.75 11.5858 21.4142 11.25 21 11.25Z" fill="#1C170D"/>
</g>
<defs>
<clipPath id="clip0_11_275">
<rect width="23" height="24" fill="white"/>
</clipPath>
</defs>
</svg>
