<svg width="24" height="24" viewBox="0 0 24 24" fill="none" xmlns="http://www.w3.org/2000/svg">
<g clip-path="url(#clip0_5_13)">
<path fill-rule="evenodd" clip-rule="evenodd" d="M20.25 3.75H3.75C2.92157 3.75 2.25 4.42157 2.25 5.25V18.75C2.25 19.5784 2.92157 20.25 3.75 20.25H20.25C21.0784 20.25 21.75 19.5784 21.75 18.75V5.25C21.75 4.42157 21.0784 3.75 20.25 3.75ZM18.75 16.5C19.1642 16.5 19.5 16.8358 19.5 17.25C19.5 17.6642 19.1642 18 18.75 18H5.25C4.83579 18 4.5 17.6642 4.5 17.25V6.75C4.5 6.33579 4.83579 6 5.25 6C5.66421 6 6 6.33579 6 6.75V12.6488L9.27 9.92344C9.5252 9.71078 9.88988 9.69132 10.1663 9.87562L14.1975 12.5653L18.2672 9.17344C18.5856 8.90834 19.0587 8.95157 19.3237 9.27C19.5888 9.58843 19.5456 10.0615 19.2272 10.3266L14.7272 14.0766C14.472 14.2892 14.1073 14.3087 13.8309 14.1244L9.79969 11.4347L6 14.6016V16.5H18.75Z" fill="#0D141C"/>
</g>
<defs>
<clipPath id="clip0_5_13">
<rect width="24" height="24" fill="white"/>
</clipPath>
</defs>
</svg>
